<svg xmlns="http://www.w3.org/2000/svg" viewBox="0 0 160 160" fill="none">
  
  <circle cx="118" cy="110" r="12" fill="#F5A623" opacity="0.9"></circle>
  <circle cx="118" cy="110" r="9" fill="#E09415"></circle>
  <text x="114" y="115" font-size="11" fill="#FFFAF4" font-family="sans-serif" font-weight="bold">$</text>
  <circle cx="42" cy="115" r="10" fill="#F5A623" opacity="0.8"></circle>
  <circle cx="42" cy="115" r="7" fill="#E09415"></circle>
  <circle cx="130" cy="130" r="8" fill="#F5A623" opacity="0.7"></circle>
  
  <ellipse cx="80" cy="108" rx="28" ry="24" fill="#F5A623"></ellipse>
  
  <circle cx="80" cy="72" r="24" fill="#F5A623"></circle>
  
  <polygon points="60,58 64,40 74,58" fill="#F5A623"></polygon>
  <polygon points="86,58 96,40 100,58" fill="#F5A623"></polygon>
  <polygon points="62,57 65,43 73,57" fill="#F07167"></polygon>
  <polygon points="87,57 95,43 98,57" fill="#F07167"></polygon>
  
  <path d="M70 70 Q74 66 78 70" stroke="#2C1A0E" stroke-width="2.5" fill="none" stroke-linecap="round"></path>
  <path d="M82 70 Q86 66 90 70" stroke="#2C1A0E" stroke-width="2.5" fill="none" stroke-linecap="round"></path>
  
  <ellipse cx="66" cy="78" rx="6" ry="4" fill="#F07167" opacity="0.3"></ellipse>
  <ellipse cx="94" cy="78" rx="6" ry="4" fill="#F07167" opacity="0.3"></ellipse>
  
  <ellipse cx="80" cy="80" rx="2.5" ry="1.8" fill="#F07167"></ellipse>
  
  <path d="M72 84 Q80 92 88 84" stroke="#2C1A0E" stroke-width="2" fill="none" stroke-linecap="round"></path>
  
  <line x1="56" y1="77" x2="72" y2="79" stroke="#2C1A0E" stroke-width="0.8" opacity="0.4"></line>
  <line x1="56" y1="81" x2="72" y2="81" stroke="#2C1A0E" stroke-width="0.8" opacity="0.4"></line>
  <line x1="88" y1="79" x2="104" y2="77" stroke="#2C1A0E" stroke-width="0.8" opacity="0.4"></line>
  <line x1="88" y1="81" x2="104" y2="81" stroke="#2C1A0E" stroke-width="0.8" opacity="0.4"></line>
  
  <ellipse cx="56" cy="100" rx="10" ry="8" fill="#E09415" transform="rotate(-20 56 100)"></ellipse>
  <ellipse cx="104" cy="100" rx="10" ry="8" fill="#E09415" transform="rotate(20 104 100)"></ellipse>
  
  <path d="M108 114 Q130 108 128 92 Q126 80 114 84" stroke="#E09415" stroke-width="9" fill="none" stroke-linecap="round"></path>
  
  <text x="30" y="70" font-size="16" opacity="0.8">✦</text>
  <text x="118" y="68" font-size="12" opacity="0.7">✦</text>
  <text x="36" y="90" font-size="10" opacity="0.6">✦</text>
</svg>