<svg xmlns="http://www.w3.org/2000/svg" viewBox="0 0 160 160" fill="none">
  
  <ellipse cx="80" cy="128" rx="44" ry="12" fill="#E8DDD4"></ellipse>
  <path d="M36 116 Q36 140 80 140 Q124 140 124 116 L120 108 Q116 120 80 120 Q44 120 40 108 Z" fill="#F5EDE0"></path>
  <ellipse cx="80" cy="108" rx="40" ry="10" fill="#E8DDD4"></ellipse>
  
  <ellipse cx="80" cy="92" rx="26" ry="22" fill="#F5A623"></ellipse>
  
  <circle cx="80" cy="64" r="22" fill="#F5A623"></circle>
  
  <polygon points="62,50 66,36 74,50" fill="#F5A623"></polygon>
  <polygon points="86,50 94,36 98,50" fill="#F5A623"></polygon>
  <polygon points="64,49 67,39 73,49" fill="#F07167"></polygon>
  <polygon points="87,49 93,39 96,49" fill="#F07167"></polygon>
  
  <path d="M72 62 Q74 65 76 62" stroke="#2C1A0E" stroke-width="2" fill="none" stroke-linecap="round"></path>
  <path d="M84 62 Q86 65 88 62" stroke="#2C1A0E" stroke-width="2" fill="none" stroke-linecap="round"></path>
  
  <ellipse cx="80" cy="68" rx="2" ry="1.4" fill="#F07167"></ellipse>
  
  <line x1="60" y1="66" x2="74" y2="68" stroke="#2C1A0E" stroke-width="0.8" opacity="0.4"></line>
  <line x1="60" y1="69" x2="74" y2="69" stroke="#2C1A0E" stroke-width="0.8" opacity="0.4"></line>
  <line x1="86" y1="68" x2="100" y2="66" stroke="#2C1A0E" stroke-width="0.8" opacity="0.4"></line>
  <line x1="86" y1="69" x2="100" y2="69" stroke="#2C1A0E" stroke-width="0.8" opacity="0.4"></line>
  
  <ellipse cx="66" cy="110" rx="9" ry="7" fill="#E09415"></ellipse>
  <ellipse cx="94" cy="110" rx="9" ry="7" fill="#E09415"></ellipse>
  
  <path d="M106 96 Q124 88 120 76 Q116 68 108 72" stroke="#E09415" stroke-width="8" fill="none" stroke-linecap="round"></path>
</svg>