<svg xmlns="http://www.w3.org/2000/svg" viewBox="0 0 240 56" fill="none">
  
  <g transform="translate(4,4)">
    
    <circle cx="24" cy="28" r="20" fill="#F5A623"></circle>
    
    <polygon points="8,14 14,4 20,14" fill="#F5A623"></polygon>
    <polygon points="28,14 34,4 40,14" fill="#F5A623"></polygon>
    
    <polygon points="10,13 14,6 18,13" fill="#F07167"></polygon>
    <polygon points="30,13 34,6 38,13" fill="#F07167"></polygon>
    
    <ellipse cx="18" cy="27" rx="3.5" ry="4" fill="#2C1A0E"></ellipse>
    <ellipse cx="30" cy="27" rx="3.5" ry="4" fill="#2C1A0E"></ellipse>
    <circle cx="19.5" cy="25.5" r="1.2" fill="white"></circle>
    <circle cx="31.5" cy="25.5" r="1.2" fill="white"></circle>
    
    <ellipse cx="24" cy="33" rx="2" ry="1.4" fill="#F07167"></ellipse>
    
    <path d="M22 34.4 Q24 36.5 26 34.4" stroke="#2C1A0E" stroke-width="1" fill="none" stroke-linecap="round"></path>
    
    <line x1="4" y1="31" x2="16" y2="33" stroke="#2C1A0E" stroke-width="0.8" opacity="0.5"></line>
    <line x1="4" y1="34" x2="16" y2="34" stroke="#2C1A0E" stroke-width="0.8" opacity="0.5"></line>
    <line x1="32" y1="33" x2="44" y2="31" stroke="#2C1A0E" stroke-width="0.8" opacity="0.5"></line>
    <line x1="32" y1="34" x2="44" y2="34" stroke="#2C1A0E" stroke-width="0.8" opacity="0.5"></line>
    
    <path d="M20 16 L24 22 L28 16" stroke="#2C1A0E" stroke-width="1.5" fill="none" stroke-linecap="round" stroke-linejoin="round" opacity="0.35"></path>
  </g>
  
  <text x="62" y="37" font-family="&#39;DM Serif Display&#39;, Georgia, serif" font-size="28" fill="#2C1A0E" letter-spacing="-0.5">Splitty</text>
</svg>